<?xml version="1.0" encoding="UTF-8"?>
<!DOCTYPE svg PUBLIC "-//W3C//DTD SVG 1.1//EN" "http://www.w3.org/Graphics/SVG/1.1/DTD/svg11.dtd">
<!-- Creator: CorelDRAW 2019 (64-Bit) -->
<svg xmlns="http://www.w3.org/2000/svg" xml:space="preserve" width="334px" height="226px" version="1.1" style="shape-rendering:geometricPrecision; text-rendering:geometricPrecision; image-rendering:optimizeQuality; fill-rule:evenodd; clip-rule:evenodd"
viewBox="0 0 104.883 71.027"
 xmlns:xlink="http://www.w3.org/1999/xlink">
 <defs>
  <style type="text/css">
   <![CDATA[
    .fil1 {fill:#FCC300;fill-rule:nonzero}
    .fil0 {fill:#323B86;fill-rule:nonzero}
   ]]>
  </style>
 </defs>
 <g id="Warstwa_x0020_1">
  <metadata id="CorelCorpID_0Corel-Layer"/>
  <g id="_1502084562832">
   <polygon class="fil0" points="0.362,68.069 0.362,70.951 0,70.951 0,64.522 0.362,64.522 0.362,67.707 3.053,67.707 3.053,64.522 3.415,64.522 3.415,70.951 3.053,70.951 3.053,68.069 "/>
   <path class="fil0" d="M4.983 64.888l0 3.467 1.093 0c0.476,0 0.884,-0.169 1.224,-0.51 0.337,-0.337 0.507,-0.747 0.507,-1.225 0,-0.48 -0.17,-0.89 -0.507,-1.226 -0.34,-0.338 -0.748,-0.506 -1.224,-0.506l-1.093 0zm1.201 3.829c-0.035,0.002 -0.07,0.003 -0.108,0.003l-1.093 0 0 2.231 -0.362 0 0 -6.429 1.687 0c0.491,0.067 0.909,0.27 1.25,0.613 0.41,0.41 0.615,0.905 0.615,1.485 0,0.58 -0.205,1.074 -0.615,1.484 -0.282,0.284 -0.609,0.473 -0.977,0.56l1.485 2.287 -0.447 0 -1.435 -2.234z"/>
   <polygon class="fil0" points="14.477,64.522 14.477,64.884 11.625,64.884 11.625,67.554 14.477,67.554 14.477,67.916 11.625,67.916 11.625,70.589 14.477,70.589 14.477,70.951 11.263,70.951 11.263,64.522 "/>
   <polygon class="fil0" points="15.1,70.951 17.136,67.417 15.465,64.522 15.879,64.522 17.341,67.061 18.812,64.522 19.226,64.522 17.546,67.417 19.591,70.951 19.178,70.951 17.341,67.775 15.509,70.951 "/>
   <path class="fil0" d="M24.703 69.924l0.273 0.248c-0.627,0.568 -1.366,0.855 -2.215,0.855 -0.91,0 -1.686,-0.322 -2.328,-0.962 -0.641,-0.643 -0.962,-1.418 -0.962,-2.33 0,-0.908 0.321,-1.684 0.962,-2.326 0.642,-0.643 1.418,-0.964 2.328,-0.964 0.849,0 1.588,0.284 2.215,0.857l-0.273 0.247c-0.552,-0.489 -1.2,-0.735 -1.942,-0.735 -0.805,0 -1.494,0.286 -2.064,0.857 -0.57,0.57 -0.857,1.259 -0.857,2.064 0,0.809 0.287,1.499 0.857,2.071 0.57,0.569 1.259,0.855 2.064,0.855 0.742,0 1.39,-0.245 1.942,-0.737z"/>
   <polygon class="fil0" points="29.029,64.522 29.029,64.884 26.176,64.884 26.176,67.554 29.029,67.554 29.029,67.916 26.176,67.916 26.176,70.589 29.029,70.589 29.029,70.951 25.815,70.951 25.815,64.522 "/>
   <polygon class="fil0" points="30.299,70.951 30.299,64.522 30.661,64.522 30.661,70.589 33.153,70.589 33.153,70.951 "/>
   <polygon class="fil0" points="33.95,70.951 33.95,64.522 34.312,64.522 34.312,70.589 36.805,70.589 36.805,70.951 "/>
   <polygon class="fil0" points="40.735,64.522 40.735,64.884 37.883,64.884 37.883,67.554 40.735,67.554 40.735,67.916 37.883,67.916 37.883,70.589 40.735,70.589 40.735,70.951 37.521,70.951 37.521,64.522 "/>
   <polygon class="fil0" points="41.841,64.522 42.24,64.522 45.542,70.238 45.542,64.522 45.904,64.522 45.904,70.951 45.542,70.951 42.203,65.176 42.203,70.951 41.841,70.951 "/>
   <path class="fil0" d="M52.076 69.924l0.273 0.248c-0.628,0.568 -1.366,0.855 -2.215,0.855 -0.91,0 -1.686,-0.322 -2.328,-0.962 -0.641,-0.643 -0.962,-1.418 -0.962,-2.33 0,-0.908 0.321,-1.684 0.962,-2.326 0.642,-0.643 1.418,-0.964 2.328,-0.964 0.849,0 1.587,0.284 2.215,0.857l-0.273 0.247c-0.552,-0.489 -1.2,-0.735 -1.942,-0.735 -0.805,0 -1.494,0.286 -2.064,0.857 -0.571,0.57 -0.857,1.259 -0.857,2.064 0,0.809 0.286,1.499 0.857,2.071 0.57,0.569 1.259,0.855 2.064,0.855 0.742,0 1.39,-0.245 1.942,-0.737z"/>
   <polygon class="fil0" points="56.237,64.522 56.237,64.884 53.385,64.884 53.385,67.554 56.237,67.554 56.237,67.916 53.385,67.916 53.385,70.589 56.237,70.589 56.237,70.951 53.023,70.951 53.023,64.522 "/>
   <polygon class="fil0" points="59.363,70.951 59.724,70.951 59.724,64.522 59.363,64.522 "/>
   <polygon class="fil0" points="61.502,64.522 61.901,64.522 65.204,70.238 65.204,64.522 65.566,64.522 65.566,70.951 65.204,70.951 61.864,65.176 61.864,70.951 61.502,70.951 "/>
   <path class="fil0" d="M69.4 64.888l0 3.467 1.093 0c0.476,0 0.884,-0.169 1.224,-0.51 0.338,-0.337 0.508,-0.747 0.508,-1.225 0,-0.48 -0.17,-0.89 -0.508,-1.226 -0.34,-0.338 -0.748,-0.506 -1.224,-0.506l-1.093 0zm1.202 3.829c-0.035,0.002 -0.07,0.003 -0.109,0.003l-1.093 0 0 2.231 -0.362 0 0 -6.429 1.688 0c0.491,0.067 0.908,0.27 1.249,0.613 0.41,0.41 0.615,0.905 0.615,1.485 0,0.58 -0.205,1.074 -0.615,1.484 -0.282,0.284 -0.609,0.473 -0.976,0.56l1.484 2.287 -0.447 0 -1.434 -2.234z"/>
   <polygon class="fil0" points="76.545,64.522 76.545,64.884 73.692,64.884 73.692,67.554 76.545,67.554 76.545,67.916 73.692,67.916 73.692,70.589 76.545,70.589 76.545,70.951 73.33,70.951 73.33,64.522 "/>
   <path class="fil0" d="M79.085 67.391c-0.458,-0.155 -0.82,-0.362 -1.086,-0.627 -0.265,-0.266 -0.397,-0.587 -0.397,-0.964 0,-0.369 0.132,-0.688 0.397,-0.956 0.266,-0.266 0.587,-0.399 0.964,-0.399 0.375,0 0.698,0.133 0.965,0.399 0.146,0.14 0.25,0.301 0.305,0.476l-0.325 0.129c-0.048,-0.131 -0.127,-0.251 -0.238,-0.361 -0.196,-0.193 -0.43,-0.288 -0.707,-0.288 -0.275,0 -0.511,0.095 -0.707,0.291 -0.196,0.192 -0.294,0.428 -0.294,0.709 0,0.275 0.098,0.51 0.294,0.705 0.183,0.181 0.434,0.346 0.755,0.495 0.515,0.166 0.947,0.425 1.298,0.775 0.373,0.37 0.559,0.818 0.559,1.343 0,0.528 -0.186,0.976 -0.559,1.349 -0.371,0.373 -0.82,0.56 -1.346,0.56 -0.524,0 -0.973,-0.187 -1.346,-0.564 -0.297,-0.297 -0.475,-0.642 -0.533,-1.037l0.341 -0.124c0.037,0.349 0.187,0.652 0.445,0.912 0.303,0.303 0.669,0.454 1.093,0.454 0.428,0 0.794,-0.151 1.097,-0.454 0.302,-0.301 0.454,-0.666 0.454,-1.096 0,-0.427 -0.152,-0.79 -0.454,-1.093 -0.264,-0.264 -0.589,-0.477 -0.975,-0.634z"/>
   <polygon class="fil0" points="85.05,64.522 85.05,64.884 82.197,64.884 82.197,67.554 85.05,67.554 85.05,67.916 82.197,67.916 82.197,70.589 85.05,70.589 85.05,70.951 81.835,70.951 81.835,64.522 "/>
   <path class="fil0" d="M88.883 68.126l-0.981 -2.695 -0.98 2.695 1.961 0zm0.132 0.362l-2.226 0 -0.896 2.463 -0.385 0 2.394 -6.578 2.391 6.578 -0.383 0 -0.895 -2.463z"/>
   <path class="fil0" d="M91.375 64.888l0 3.467 1.093 0c0.476,0 0.884,-0.169 1.224,-0.51 0.338,-0.337 0.507,-0.747 0.507,-1.225 0,-0.48 -0.169,-0.89 -0.507,-1.226 -0.34,-0.338 -0.748,-0.506 -1.224,-0.506l-1.093 0zm1.201 3.829c-0.035,0.002 -0.07,0.003 -0.108,0.003l-1.093 0 0 2.231 -0.362 0 0 -6.429 1.687 0c0.491,0.067 0.908,0.27 1.25,0.613 0.41,0.41 0.615,0.905 0.615,1.485 0,0.58 -0.205,1.074 -0.615,1.484 -0.282,0.284 -0.609,0.473 -0.977,0.56l1.485 2.287 -0.447 0 -1.435 -2.234z"/>
   <path class="fil0" d="M100.356 69.924l0.273 0.248c-0.627,0.568 -1.366,0.855 -2.215,0.855 -0.91,0 -1.686,-0.322 -2.328,-0.962 -0.641,-0.643 -0.962,-1.418 -0.962,-2.33 0,-0.908 0.321,-1.684 0.962,-2.326 0.642,-0.643 1.418,-0.964 2.328,-0.964 0.849,0 1.588,0.284 2.215,0.857l-0.273 0.247c-0.552,-0.489 -1.2,-0.735 -1.942,-0.735 -0.805,0 -1.493,0.286 -2.064,0.857 -0.57,0.57 -0.857,1.259 -0.857,2.064 0,0.809 0.287,1.499 0.857,2.071 0.571,0.569 1.259,0.855 2.064,0.855 0.742,0 1.39,-0.245 1.942,-0.737z"/>
   <polygon class="fil0" points="101.829,68.069 101.829,70.951 101.467,70.951 101.467,64.522 101.829,64.522 101.829,67.707 104.521,67.707 104.521,64.522 104.883,64.522 104.883,70.951 104.521,70.951 104.521,68.069 "/>
   <path class="fil1" d="M66.282 17.068c0,-3.436 -2.788,-6.225 -6.227,-6.225 -3.438,0 -6.227,2.789 -6.227,6.225 0,3.439 2.789,6.226 6.227,6.226 3.439,0 6.227,-2.787 6.227,-6.226z"/>
   <path class="fil0" d="M75.668 19.394c-3.8,0 -7.055,1.331 -9.772,3.991 -2.716,2.661 -4.073,5.882 -4.073,9.659l0 16.608c2.233,0 3.961,-0.611 5.185,-1.833 1.223,-1.222 1.835,-2.683 1.835,-4.379l0 -10.396c0,-1.889 0.666,-3.514 1.995,-4.878 1.331,-1.361 2.939,-2.045 4.83,-2.045l0.825 0 0 -6.727 -0.825 0z"/>
   <path class="fil0" d="M44.861 19.394c3.799,0 7.056,1.331 9.772,3.991 2.717,2.661 4.074,5.882 4.074,9.659l0 16.608c-2.234,0 -3.962,-0.611 -5.184,-1.833 -1.224,-1.222 -1.837,-2.683 -1.837,-4.379l0 -10.396c0,-1.889 -0.666,-3.514 -1.994,-4.878 -1.332,-1.361 -2.944,-2.045 -4.831,-2.045l-0.823 0 0 -6.727 0.823 0z"/>
   <path class="fil0" d="M40.083 1.835c-1.199,-1.197 -2.879,-1.809 -5.042,-1.835l-0.143 0 0 49.652c2.232,0 3.96,-0.611 5.185,-1.833 0.99,-0.994 1.749,-2.061 1.749,-7.304l0 -32.973c0,-3.832 -0.759,-4.714 -1.749,-5.707z"/>
  </g>
 </g>
</svg>
