<?xml version="1.0" encoding="UTF-8"?>
<!DOCTYPE svg PUBLIC "-//W3C//DTD SVG 1.1//EN" "http://www.w3.org/Graphics/SVG/1.1/DTD/svg11.dtd">
<!-- Creator: CorelDRAW 2019 (64-Bit) -->
<svg xmlns="http://www.w3.org/2000/svg" xml:space="preserve" width="160px" height="226px" version="1.1" style="shape-rendering:geometricPrecision; text-rendering:geometricPrecision; image-rendering:optimizeQuality; fill-rule:evenodd; clip-rule:evenodd"
viewBox="0 0 48.984 69.316"
 xmlns:xlink="http://www.w3.org/1999/xlink">
 <defs>
  <style type="text/css">
   <![CDATA[
    .fil2 {fill:#6B2E82;fill-rule:nonzero}
    .fil0 {fill:#7D7D7D;fill-rule:nonzero}
    .fil1 {fill:#E31E24;fill-rule:nonzero}
   ]]>
  </style>
 </defs>
 <g id="Warstwa_x0020_1">
  <metadata id="CorelCorpID_0Corel-Layer"/>
  <g id="_1503744354256">
   <path class="fil0" d="M4.716 60.256c0,-0.932 -0.406,-1.419 -1.217,-1.459 0.415,-0.074 0.712,-0.211 0.89,-0.413 0.178,-0.201 0.267,-0.506 0.267,-0.915l0 -0.634c0,-0.617 -0.161,-1.033 -0.483,-1.248 -0.282,-0.188 -0.815,-0.282 -1.6,-0.282l-2.274 0 0 7.295 2.349 0c0.783,0 1.315,-0.093 1.596,-0.281 0.315,-0.208 0.472,-0.621 0.472,-1.238l0 -0.825zm-1.851 -2.068c-0.074,0.071 -0.212,0.106 -0.413,0.106l-0.473 0 0 -1.701 0.473 0c0.201,0 0.339,0.036 0.413,0.106 0.073,0.07 0.11,0.21 0.11,0.417l0 0.654c0,0.208 -0.037,0.348 -0.11,0.418zm0.04 3.029c-0.074,0.07 -0.212,0.106 -0.413,0.106l-0.513 0 0 -1.902 0.513 0c0.208,0 0.348,0.036 0.418,0.11 0.07,0.074 0.106,0.215 0.106,0.423l0 0.845c0,0.208 -0.037,0.347 -0.111,0.418zm6.993 -5.912l-2.717 0 -1.087 7.295 1.701 0 0.201 -1.791 1.077 0 0.201 1.791 1.741 0 -1.117 -7.295zm-1.751 4.287l0.403 -3.441 0.372 3.441 -0.775 0zm8.714 -2.023c0,-0.885 -0.15,-1.484 -0.448,-1.796 -0.298,-0.312 -0.884,-0.468 -1.756,-0.468l-2.153 0 0 7.295 2.153 0c0.872,0 1.458,-0.156 1.756,-0.468 0.298,-0.311 0.448,-0.91 0.448,-1.795l0 -2.768zm-1.852 3.648c-0.067,0.057 -0.184,0.085 -0.352,0.085l-0.452 0 0 -4.689 0.452 0c0.161,0 0.272,0.024 0.332,0.071 0.081,0.067 0.121,0.208 0.121,0.422l0 3.703c0,0.215 -0.033,0.351 -0.101,0.408zm7.054 -5.912l-2.717 0 -1.087 7.295 1.701 0 0.201 -1.791 1.077 0 0.201 1.791 1.741 0 -1.117 -7.295zm-1.751 4.287l0.403 -3.441 0.372 3.441 -0.775 0zm10.168 -4.287l-0.453 6.068 -0.674 -6.068 -2.274 0 -0.674 6.068 -0.453 -6.068 -1.65 0 0.865 7.295 2.395 0 0.654 -6.148 0.664 6.148 2.395 0 0.855 -7.295 -1.65 0zm7.113 4.569l-1.549 0 0 0.996c0,0.194 -0.027,0.329 -0.081,0.402 -0.053,0.074 -0.167,0.111 -0.342,0.111 -0.181,0 -0.295,-0.037 -0.342,-0.111 -0.047,-0.073 -0.07,-0.207 -0.07,-0.402l0 -3.837c0,-0.167 0.013,-0.285 0.04,-0.351 0.047,-0.108 0.171,-0.161 0.372,-0.161 0.168,0 0.281,0.035 0.338,0.105 0.056,0.07 0.085,0.206 0.085,0.407l0 0.733 1.549 0 0 -0.502c0,-0.797 -0.113,-1.336 -0.341,-1.617 -0.148,-0.181 -0.353,-0.301 -0.614,-0.362 -0.215,-0.047 -0.54,-0.07 -0.976,-0.07 -0.503,0 -0.869,0.023 -1.097,0.07 -0.309,0.061 -0.547,0.182 -0.714,0.362 -0.168,0.182 -0.279,0.41 -0.332,0.685 -0.041,0.201 -0.061,0.513 -0.061,0.936l0 3.37c0,0.423 0.02,0.735 0.061,0.936 0.053,0.282 0.161,0.51 0.322,0.684 0.18,0.195 0.429,0.322 0.744,0.383 0.201,0.033 0.56,0.05 1.077,0.05 0.456,0 0.774,-0.02 0.956,-0.06 0.275,-0.055 0.486,-0.176 0.634,-0.365 0.147,-0.19 0.244,-0.423 0.291,-0.701 0.034,-0.202 0.05,-0.514 0.05,-0.937l0 -0.754zm5.042 1.418l-1.963 0 1.963 -4.83 0 -1.157 -3.512 0 0 1.308 1.741 0 -1.922 4.679 0 1.308 3.693 0 0 -1.308zm5.02 -5.987l-2.716 0 -1.087 7.295 1.7 0 0.202 -1.791 1.076 0 0.201 1.791 1.741 0 -1.117 -7.295zm-1.75 4.287l0.402 -3.441 0.372 3.441 -0.774 0z"/>
   <path class="fil0" d="M11.393 44.706l-1.63 0 0 5.554c0,0.195 -0.027,0.329 -0.081,0.403 -0.054,0.074 -0.178,0.11 -0.372,0.11 -0.161,0 -0.272,-0.026 -0.332,-0.08 -0.081,-0.06 -0.121,-0.205 -0.121,-0.433l0 -5.554 -1.701 0 0 4.94c0,0.497 0.017,0.862 0.051,1.097 0.053,0.342 0.161,0.617 0.321,0.825 0.175,0.228 0.44,0.379 0.795,0.453 0.209,0.047 0.524,0.071 0.947,0.071 0.415,0 0.731,-0.024 0.945,-0.071 0.356,-0.074 0.617,-0.221 0.785,-0.443 0.168,-0.221 0.278,-0.496 0.332,-0.825 0.041,-0.241 0.061,-0.61 0.061,-1.107l0 -4.94zm5.886 4.568l-1.55 0 0 0.996c0,0.195 -0.027,0.329 -0.08,0.403 -0.054,0.074 -0.168,0.11 -0.342,0.11 -0.182,0 -0.296,-0.036 -0.343,-0.11 -0.046,-0.074 -0.07,-0.208 -0.07,-0.402l0 -3.837c0,-0.168 0.013,-0.285 0.04,-0.352 0.047,-0.107 0.171,-0.161 0.373,-0.161 0.167,0 0.28,0.036 0.337,0.106 0.057,0.07 0.085,0.206 0.085,0.407l0 0.733 1.55 0 0 -0.502c0,-0.797 -0.115,-1.336 -0.342,-1.617 -0.148,-0.181 -0.353,-0.302 -0.614,-0.362 -0.215,-0.047 -0.54,-0.07 -0.976,-0.07 -0.503,0 -0.869,0.023 -1.097,0.07 -0.309,0.06 -0.547,0.181 -0.714,0.362 -0.168,0.181 -0.279,0.409 -0.332,0.684 -0.041,0.202 -0.061,0.513 -0.061,0.936l0 3.371c0,0.422 0.02,0.734 0.061,0.936 0.053,0.281 0.161,0.509 0.322,0.684 0.181,0.194 0.429,0.322 0.744,0.382 0.201,0.034 0.56,0.051 1.077,0.051 0.456,0 0.775,-0.021 0.956,-0.061 0.275,-0.054 0.486,-0.176 0.634,-0.365 0.147,-0.189 0.244,-0.423 0.292,-0.7 0.033,-0.202 0.05,-0.515 0.05,-0.937l0 -0.755zm5.041 1.419l-1.962 0 1.962 -4.83 0 -1.157 -3.512 0 0 1.308 1.741 0 -1.922 4.679 0 1.308 3.693 0 0 -1.308zm4.95 0l-1.65 0 0 -1.811 1.419 0 0 -1.258 -1.419 0 0 -1.61 1.509 0 0 -1.308 -3.209 0 0 7.295 3.35 0 0 -1.308zm4.93 0l-1.61 0 0 -5.987 -1.7 0 0 7.295 3.31 0 0 -1.308zm6.51 -5.987l-1.539 0 0.101 5.766 -1.319 -5.766 -2.394 0 0 7.295 1.539 0 -0.111 -5.927 1.339 5.927 2.384 0 0 -7.295zm3.603 0l-1.701 0 0 7.295 1.701 0 0 -7.295zm5.342 0l-2.716 0 -1.087 7.295 1.701 0 0.201 -1.791 1.076 0 0.202 1.791 1.74 0 -1.117 -7.295zm-1.75 4.287l0.402 -3.442 0.372 3.442 -0.774 0z"/>
   <path class="fil0" d="M0.344 65.809l-0.344 0 0 3.464 0.344 0 0 -3.464zm2.714 0l-0.335 0 0 3.077 -1.285 -3.077 -0.506 0 0 3.464 0.334 0 0 -3.024 1.266 3.024 0.526 0 0 -3.464zm0.927 0l-0.344 0 0 3.464 0.344 0 0 -3.464zm2.31 0.191c-0.136,-0.156 -0.361,-0.234 -0.676,-0.234l-0.182 0c-0.322,0 -0.552,0.094 -0.69,0.282 -0.139,0.188 -0.208,0.486 -0.208,0.893l0 1.285c0,0.373 0.049,0.636 0.148,0.789 0.131,0.201 0.35,0.301 0.66,0.301l0.334 0c0.541,0 0.812,-0.333 0.812,-0.999 0,-0.089 -0.002,-0.157 -0.005,-0.205l-0.363 0 0 0.086c0,0.318 -0.028,0.526 -0.086,0.621 -0.063,0.108 -0.207,0.163 -0.43,0.163l-0.186 0c-0.229,0 -0.376,-0.061 -0.44,-0.182 -0.054,-0.099 -0.081,-0.329 -0.081,-0.689l0 -1.168c0,-0.316 0.032,-0.53 0.095,-0.642 0.074,-0.127 0.216,-0.191 0.426,-0.191l0.186 0c0.201,0 0.339,0.059 0.416,0.177 0.067,0.108 0.1,0.307 0.1,0.597l0 0.043 0.368 0c0.003,-0.038 0.005,-0.092 0.005,-0.162 0,-0.354 -0.068,-0.609 -0.203,-0.765zm2.085 -0.191l-0.344 0 0 2.57c0,0.233 -0.033,0.391 -0.1,0.474 -0.07,0.092 -0.206,0.138 -0.406,0.138 -0.201,0 -0.334,-0.046 -0.402,-0.138 -0.063,-0.083 -0.095,-0.241 -0.095,-0.474l0 -0.272 -0.344 0 0 0.401c0,0.306 0.061,0.518 0.184,0.634 0.122,0.116 0.343,0.174 0.662,0.174 0.318,0 0.539,-0.058 0.661,-0.174 0.123,-0.116 0.184,-0.328 0.184,-0.634l0 -2.699zm1.668 0l-0.401 0 -0.994 3.464 0.344 0 0.215 -0.745 1.204 0 0.196 0.745 0.372 0 -0.936 -3.464zm-0.745 2.399l0.535 -1.931 0.492 1.931 -1.027 0zm3.315 -2.394l-1.825 0 0 0.334 0.741 0 0 3.125 0.344 0 0 -3.125 0.74 0 0 -0.334zm1.768 -0.005l-0.695 1.672 -0.705 -1.672 -0.377 0 0.908 2.016 0 1.448 0.344 0 0 -1.448 0.869 -2.016 -0.344 0zm3.555 0l-0.64 3.02 -0.617 -3.02 -0.344 0 -0.645 3.02 -0.616 -3.02 -0.344 0 0.75 3.464 0.401 0 0.621 -2.776 0.583 2.776 0.402 0 0.793 -3.464 -0.344 0zm1.519 0l-0.401 0 -0.994 3.464 0.344 0 0.215 -0.745 1.204 0 0.196 0.745 0.373 0 -0.937 -3.464zm-0.745 2.399l0.535 -1.931 0.492 1.931 -1.027 0zm5.227 -1.142c0,-0.465 -0.087,-0.791 -0.261,-0.977 -0.173,-0.187 -0.486,-0.28 -0.938,-0.28l-0.87 0 0 3.464 0.87 0c0.452,0 0.765,-0.092 0.938,-0.277 0.174,-0.185 0.261,-0.51 0.261,-0.975l0 -0.955zm-0.531 1.691c-0.111,0.131 -0.356,0.196 -0.735,0.196l-0.459 0 0 -2.824 0.459 0c0.325,0 0.547,0.045 0.669,0.134 0.105,0.08 0.173,0.204 0.205,0.373 0.019,0.092 0.029,0.239 0.029,0.439l0 0.932c0,0.369 -0.056,0.619 -0.168,0.75zm3.13 -1.816c0,-0.407 -0.069,-0.705 -0.208,-0.893 -0.138,-0.188 -0.369,-0.282 -0.69,-0.282l-0.297 0c-0.321,0 -0.551,0.094 -0.69,0.282 -0.138,0.188 -0.208,0.486 -0.208,0.893l0 1.204c0,0.408 0.069,0.703 0.206,0.884 0.14,0.192 0.371,0.287 0.692,0.287l0.297 0c0.321,0 0.552,-0.095 0.693,-0.287 0.136,-0.181 0.205,-0.476 0.205,-0.884l0 -1.204zm-0.477 1.854c-0.079,0.124 -0.234,0.187 -0.465,0.187l-0.209 0c-0.231,0 -0.384,-0.063 -0.46,-0.187 -0.073,-0.115 -0.109,-0.33 -0.109,-0.646l0 -1.206c0,-0.316 0.037,-0.534 0.112,-0.653 0.074,-0.12 0.226,-0.18 0.457,-0.18l0.209 0c0.231,0 0.386,0.062 0.465,0.186 0.07,0.116 0.105,0.331 0.105,0.647l0 1.206c0,0.316 -0.035,0.531 -0.105,0.646zm2.895 -0.726c0,-0.245 -0.069,-0.42 -0.206,-0.526 -0.121,-0.092 -0.352,-0.165 -0.693,-0.219 -0.293,-0.048 -0.455,-0.078 -0.487,-0.091 -0.108,-0.045 -0.162,-0.142 -0.162,-0.292l0 -0.372c0,-0.172 0.031,-0.292 0.093,-0.359 0.062,-0.066 0.177,-0.1 0.346,-0.1l0.282 0c0.179,0 0.301,0.038 0.368,0.115 0.067,0.076 0.1,0.215 0.1,0.415l0 0.115 0.359 0 0 -0.1c0,-0.319 -0.064,-0.547 -0.192,-0.683 -0.127,-0.137 -0.342,-0.206 -0.645,-0.206l-0.248 0c-0.551,0 -0.827,0.251 -0.827,0.751l0 0.431c0,0.281 0.088,0.475 0.263,0.584 0.041,0.025 0.105,0.048 0.191,0.067 0.042,0.009 0.136,0.027 0.282,0.052 0.303,0.051 0.471,0.082 0.507,0.091 0.13,0.035 0.213,0.088 0.248,0.158 0.035,0.071 0.053,0.177 0.053,0.321l0 0.296c0,0.176 -0.031,0.297 -0.094,0.364 -0.062,0.067 -0.177,0.101 -0.346,0.101l-0.339 0c-0.178,0 -0.302,-0.039 -0.37,-0.117 -0.069,-0.079 -0.103,-0.218 -0.103,-0.419l0 -0.291 -0.358 0 0 0.177c0,0.366 0.055,0.619 0.167,0.758 0.121,0.151 0.345,0.226 0.673,0.226l0.311 0c0.551,0 0.827,-0.25 0.827,-0.75l0 -0.497zm1.299 -0.616l1.223 -1.644 -0.382 0 -1.109 1.491 -0.176 0 0 -1.491 -0.344 0 0 3.464 0.344 0 0 -1.644 0.148 0 1.247 1.644 0.43 0 -1.381 -1.82zm3.617 -0.512c0,-0.407 -0.069,-0.705 -0.208,-0.893 -0.138,-0.188 -0.369,-0.282 -0.69,-0.282l-0.296 0c-0.322,0 -0.552,0.094 -0.691,0.282 -0.138,0.188 -0.208,0.486 -0.208,0.893l0 1.204c0,0.408 0.069,0.703 0.206,0.884 0.14,0.192 0.371,0.287 0.693,0.287l0.296 0c0.321,0 0.553,-0.095 0.693,-0.287 0.137,-0.181 0.205,-0.476 0.205,-0.884l0 -1.204zm-0.477 1.854c-0.079,0.124 -0.234,0.187 -0.465,0.187l-0.209 0c-0.23,0 -0.384,-0.063 -0.46,-0.187 -0.073,-0.115 -0.109,-0.33 -0.109,-0.646l0 -1.206c0,-0.316 0.037,-0.534 0.111,-0.653 0.075,-0.12 0.228,-0.18 0.458,-0.18l0.209 0c0.231,0 0.386,0.062 0.465,0.186 0.069,0.116 0.104,0.331 0.104,0.647l0 1.206c0,0.316 -0.035,0.531 -0.104,0.646zm3.143 -2.986l-0.334 0 0 3.077 -1.286 -3.077 -0.506 0 0 3.464 0.334 0 0 -3.024 1.267 3.024 0.525 0 0 -3.464zm1.677 0l-0.401 0 -0.994 3.464 0.344 0 0.215 -0.745 1.204 0 0.196 0.745 0.372 0 -0.936 -3.464zm-0.745 2.399l0.535 -1.931 0.492 1.931 -1.027 0zm3.349 0.731l-1.032 0 0 -1.473 0.425 -0.296 0 -0.267 -0.425 0.287 0 -1.381 -0.344 0 0 1.558 -0.182 0.124 0 0.263 0.182 -0.115 0 1.634 1.376 0 0 -0.334zm2.322 -1.998c0,-0.407 -0.069,-0.705 -0.208,-0.893 -0.138,-0.188 -0.369,-0.282 -0.69,-0.282l-0.296 0c-0.322,0 -0.552,0.094 -0.691,0.282 -0.139,0.188 -0.208,0.486 -0.208,0.893l0 1.204c0,0.408 0.069,0.703 0.206,0.884 0.14,0.192 0.371,0.287 0.693,0.287l0.296 0c0.321,0 0.552,-0.095 0.692,-0.287 0.137,-0.181 0.206,-0.476 0.206,-0.884l0 -1.204zm-0.477 1.854c-0.079,0.124 -0.234,0.187 -0.465,0.187l-0.209 0c-0.231,0 -0.384,-0.063 -0.46,-0.187 -0.073,-0.115 -0.109,-0.33 -0.109,-0.646l0 -1.206c0,-0.316 0.037,-0.534 0.111,-0.653 0.075,-0.12 0.227,-0.18 0.458,-0.18l0.209 0c0.231,0 0.386,0.062 0.465,0.186 0.07,0.116 0.104,0.331 0.104,0.647l0 1.206c0,0.316 -0.034,0.531 -0.104,0.646zm2.106 -4.075l-0.425 0.788 0.306 0 0.535 -0.788 -0.416 0zm0.788 3.349c0,-0.245 -0.068,-0.42 -0.205,-0.526 -0.121,-0.092 -0.352,-0.165 -0.693,-0.219 -0.293,-0.048 -0.455,-0.078 -0.487,-0.091 -0.108,-0.045 -0.163,-0.142 -0.163,-0.292l0 -0.372c0,-0.172 0.031,-0.292 0.094,-0.359 0.062,-0.066 0.177,-0.1 0.346,-0.1l0.282 0c0.178,0 0.301,0.038 0.368,0.115 0.067,0.076 0.1,0.215 0.1,0.415l0 0.115 0.358 0 0 -0.1c0,-0.319 -0.063,-0.547 -0.191,-0.683 -0.127,-0.137 -0.342,-0.206 -0.644,-0.206l-0.249 0c-0.551,0 -0.826,0.251 -0.826,0.751l0 0.431c0,0.281 0.087,0.475 0.262,0.584 0.042,0.025 0.105,0.048 0.191,0.067 0.042,0.009 0.136,0.027 0.282,0.052 0.303,0.051 0.472,0.082 0.507,0.091 0.13,0.035 0.213,0.088 0.248,0.158 0.035,0.071 0.053,0.177 0.053,0.321l0 0.296c0,0.176 -0.032,0.297 -0.094,0.364 -0.062,0.067 -0.177,0.101 -0.346,0.101l-0.339 0c-0.178,0 -0.302,-0.039 -0.371,-0.117 -0.068,-0.079 -0.102,-0.218 -0.102,-0.419l0 -0.291 -0.359 0 0 0.177c0,0.366 0.056,0.619 0.168,0.758 0.121,0.151 0.345,0.226 0.673,0.226l0.311 0c0.551,0 0.826,-0.25 0.826,-0.75l0 -0.497zm2.234 -2.069c-0.135,-0.156 -0.361,-0.234 -0.676,-0.234l-0.181 0c-0.322,0 -0.552,0.094 -0.691,0.282 -0.138,0.188 -0.208,0.486 -0.208,0.893l0 1.285c0,0.373 0.05,0.636 0.148,0.789 0.131,0.201 0.351,0.301 0.66,0.301l0.334 0c0.542,0 0.812,-0.333 0.812,-0.999 0,-0.089 -0.001,-0.157 -0.004,-0.205l-0.363 0 0 0.086c0,0.318 -0.029,0.526 -0.086,0.621 -0.064,0.108 -0.207,0.163 -0.431,0.163l-0.186 0c-0.229,0 -0.376,-0.061 -0.439,-0.182 -0.054,-0.099 -0.081,-0.329 -0.081,-0.689l0 -1.168c0,-0.316 0.031,-0.53 0.095,-0.642 0.073,-0.127 0.215,-0.191 0.425,-0.191l0.186 0c0.201,0 0.34,0.059 0.416,0.177 0.067,0.108 0.101,0.307 0.101,0.597l0 0.043 0.367 0c0.004,-0.038 0.005,-0.092 0.005,-0.162 0,-0.354 -0.067,-0.609 -0.203,-0.765zm0.977 -0.191l-0.344 0 0 3.464 0.344 0 0 -3.464z"/>
   <g>
    <path class="fil1" d="M44.512 32.419l-0.019 0.003c0,1.842 -1.493,3.336 -3.335,3.336l0.017 0.018 -7.844 0 -3.351 0 -0.002 -0.018c-1.843,0 -3.336,-1.494 -3.336,-3.336l-0.018 0.017 0 -19.023 -0.001 0 0 -2.236 0 -5.591c0,-3.078 -2.488,-5.574 -5.562,-5.589l-6.764 0c-3.074,0.015 -5.562,2.512 -5.562,5.589l0 1.004 0 3.739 0 1.967c0.001,3.086 2.504,5.589 5.59,5.589l5.59 0 0 -4.472 -5.59 0c-0.617,0 -1.117,-0.501 -1.118,-1.118l0 -1.966 0 -3.739 0 -1.004c0,-0.616 0.501,-1.117 1.118,-1.117l1.118 0 3.148 0 2.442 0c0.618,0 1.118,0.5 1.118,1.117l0 5.591 0 2.236 0 13.415 0.001 0 0 5.592c0,4.321 3.504,7.825 7.826,7.825l10.062 0 1.119 0c4.321,-0.001 7.825,-3.504 7.825,-7.826l-0.001 -10.062 0 -1.12c0,-4.321 -3.504,-7.824 -7.825,-7.824l-5.59 0 -6.708 0 0 4.472 12.295 0 0.003 0.018c1.842,0 3.335,1.493 3.335,3.336l0.018 -0.017 0.001 11.194z"/>
    <polygon class="fil2" points="16.676,13.418 19.912,13.418 19.912,17.829 "/>
    <polygon class="fil2" points="32.08,17.887 28.856,17.887 28.856,13.492 "/>
   </g>
  </g>
 </g>
</svg>
