<?xml version="1.0" encoding="UTF-8"?>
<!DOCTYPE svg PUBLIC "-//W3C//DTD SVG 1.1//EN" "http://www.w3.org/Graphics/SVG/1.1/DTD/svg11.dtd">
<!-- Creator: CorelDRAW 2019 (64-Bit) -->
<svg xmlns="http://www.w3.org/2000/svg" xml:space="preserve" width="127px" height="226px" version="1.1" style="shape-rendering:geometricPrecision; text-rendering:geometricPrecision; image-rendering:optimizeQuality; fill-rule:evenodd; clip-rule:evenodd"
viewBox="0 0 352.588 626.915"
 xmlns:xlink="http://www.w3.org/1999/xlink">
 <defs>
  <style type="text/css">
   <![CDATA[
    .fil3 {fill:#D62446;fill-rule:nonzero}
    .fil0 {fill:black;fill-rule:nonzero}
    .fil2 {fill:#6F2529;fill-rule:nonzero}
    .fil5 {fill:#5EB34D;fill-rule:nonzero}
    .fil4 {fill:#2DB7CC;fill-rule:nonzero}
    .fil6 {fill:#252526;fill-rule:nonzero}
    .fil7 {fill:#1D715A;fill-rule:nonzero}
    .fil1 {fill:#323C89;fill-rule:nonzero}
    .fil8 {fill:#343987;fill-rule:nonzero}
   ]]>
  </style>
 </defs>
 <g id="Warstwa_x0020_1">
  <metadata id="CorelCorpID_0Corel-Layer"/>
  <g id="_1503477767888">
   <polygon class="fil0" points="1.017,604.068 0.001,604.068 0.001,605.084 0.001,625.558 0.001,626.573 1.017,626.573 14.126,626.573 15.142,626.573 15.142,625.558 15.142,623.339 15.142,622.323 14.126,622.323 4.565,622.323 4.565,617.389 12.818,617.389 13.834,617.389 13.834,616.374 13.834,614.184 13.834,613.168 12.818,613.168 4.565,613.168 4.565,608.318 14.156,608.318 15.172,608.318 15.172,607.302 15.172,605.084 15.172,604.068 14.156,604.068 "/>
   <path class="fil0" d="M32.531 604.068l-1.016 0 0 1.016 0 13.99c0,2.651 -2.318,3.591 -4.303,3.591 -1.597,0 -4.301,-0.757 -4.301,-3.591l0 -13.99 0 -1.016 -1.016 0 -2.502 0 -1.015 0 0 1.016 0 13.791c0,5.034 3.302,8.04 8.834,8.04 5.533,0 8.836,-2.996 8.836,-8.011l0 -13.82 0 -1.016 -1.016 0 -2.501 0z"/>
   <path class="fil0" d="M51.362 611.624c0,0.571 -0.151,3.42 -3.134,3.42l-3.137 0 0 -6.726 2.994 0c3.119,0 3.277,2.754 3.277,3.306zm1.715 6.183c2.68,-1.998 2.905,-5.142 2.905,-6.126 0,-4.767 -3.026,-7.613 -8.095,-7.613l-6.315 0 -1.015 0 0 1.016 0 20.474 0 1.015 1.015 0 2.503 0 1.016 0 0 -1.015 0 -6.294 2.51 0c0.424,0 0.801,-0.012 1.1,-0.026l3.485 6.783 0.284 0.552 0.619 0 2.815 0 1.661 0 -0.757 -1.479 -3.731 -7.287z"/>
   <path class="fil0" d="M74.431 615.321c0,6.607 -3.12,7.372 -5.468,7.372 -2.298,0 -5.354,-0.765 -5.354,-7.372 0,-6.608 3.12,-7.372 5.468,-7.372 2.299,0 5.354,0.764 5.354,7.372zm-5.411 -11.594c-6.486,0 -10.059,4.118 -10.059,11.594 0,7.475 3.573,11.594 10.059,11.594 6.487,0 10.059,-4.119 10.059,-11.594 0,-7.476 -3.572,-11.594 -10.059,-11.594z"/>
   <path class="fil0" d="M87.355 608.318l3.248 0c3.066,0 3.222,3.038 3.222,3.647 0,1.67 -0.843,3.62 -3.222,3.62l-3.248 0 0 -7.267zm3.505 -4.25l-7.024 0 -1.015 0 0 1.016 0 20.474 0 1.015 1.015 0 2.503 0 1.016 0 0 -1.015 0 -5.725 3.59 0c4.923,0 7.498,-3.958 7.498,-7.868 0,-4.65 -3.118,-7.897 -7.583,-7.897z"/>
   <polygon class="fil0" points="102.599,604.068 101.583,604.068 101.583,605.084 101.583,625.558 101.583,626.573 102.599,626.573 115.706,626.573 116.722,626.573 116.722,625.558 116.722,623.339 116.722,622.323 115.706,622.323 106.145,622.323 106.145,617.389 114.399,617.389 115.415,617.389 115.415,616.374 115.415,614.184 115.415,613.168 114.399,613.168 106.145,613.168 106.145,608.318 115.735,608.318 116.751,608.318 116.751,607.302 116.751,605.084 116.751,604.068 115.735,604.068 "/>
   <path class="fil0" d="M131.637 617.633l-5.348 0 2.675 -7.829 2.673 7.829zm0.133 -12.916l-0.239 -0.678 -0.719 0 -3.611 0 -0.72 0 -0.238 0.679 -7.195 20.503 -0.474 1.352 1.433 0 2.672 0 0.725 0 0.236 -0.684 1.384 -4.009 7.965 0 1.384 4.009 0.235 0.684 0.725 0 2.702 0 1.434 0 -0.476 -1.353 -7.223 -20.503z"/>
   <polygon class="fil0" points="156.687,604.068 155.671,604.068 155.671,605.084 155.671,618.318 146.53,604.522 146.228,604.068 145.683,604.068 142.895,604.068 141.879,604.068 141.879,605.084 141.879,625.558 141.879,626.573 142.895,626.573 145.426,626.573 146.442,626.573 146.442,625.558 146.442,612.494 155.558,626.122 155.86,626.573 156.402,626.573 159.189,626.573 160.205,626.573 160.205,625.558 160.205,605.084 160.205,604.068 159.189,604.068 "/>
   <path class="fil0" d="M188.511 604.068l-1.016 0 0 1.016 0 13.99c0,2.651 -2.317,3.591 -4.3,3.591 -1.599,0 -4.303,-0.757 -4.303,-3.591l0 -13.99 0 -1.016 -1.016 0 -2.503 0 -1.016 0 0 1.016 0 13.791c0,5.034 3.304,8.04 8.838,8.04 5.531,0 8.834,-2.996 8.834,-8.011l0 -13.82 0 -1.016 -1.016 0 -2.502 0z"/>
   <polygon class="fil0" points="211.346,604.068 210.33,604.068 210.33,605.084 210.33,618.318 201.19,604.522 200.888,604.068 200.343,604.068 197.555,604.068 196.539,604.068 196.539,605.084 196.539,625.558 196.539,626.573 197.555,626.573 200.086,626.573 201.102,626.573 201.102,625.558 201.102,612.494 210.218,626.122 210.52,626.573 211.062,626.573 213.848,626.573 214.864,626.573 214.864,625.558 214.864,605.084 214.864,604.068 213.848,604.068 "/>
   <polygon class="fil0" points="220.523,604.068 219.507,604.068 219.507,605.084 219.507,625.558 219.507,626.573 220.523,626.573 223.054,626.573 224.07,626.573 224.07,625.558 224.07,605.084 224.07,604.068 223.054,604.068 "/>
   <polygon class="fil0" points="242.997,604.068 242.263,604.068 242.032,604.764 236.858,620.41 231.533,604.757 231.298,604.068 230.572,604.068 227.869,604.068 226.441,604.068 226.91,605.418 234.019,625.89 234.256,626.573 234.978,626.573 238.617,626.573 239.341,626.573 239.578,625.89 246.686,605.418 247.155,604.068 245.727,604.068 "/>
   <polygon class="fil0" points="250.587,604.068 249.571,604.068 249.571,605.084 249.571,625.558 249.571,626.573 250.587,626.573 263.697,626.573 264.712,626.573 264.712,625.558 264.712,623.339 264.712,622.323 263.697,622.323 254.134,622.323 254.134,617.389 262.388,617.389 263.404,617.389 263.404,616.374 263.404,614.184 263.404,613.168 262.388,613.168 254.134,613.168 254.134,608.318 263.725,608.318 264.741,608.318 264.741,607.302 264.741,605.084 264.741,604.068 263.725,604.068 "/>
   <path class="fil0" d="M278.853 611.624c0,0.571 -0.151,3.42 -3.137,3.42l-3.135 0 0 -6.726 2.994 0c3.12,0 3.278,2.754 3.278,3.306zm1.712 6.183c2.682,-1.998 2.906,-5.142 2.906,-6.126 0,-4.767 -3.027,-7.613 -8.097,-7.613l-6.31 0 -1.016 0 0 1.016 0 20.474 0 1.015 1.016 0 2.501 0 1.016 0 0 -1.015 0 -6.294 2.51 0c0.424,0 0.801,-0.012 1.101,-0.026l3.484 6.783 0.283 0.552 0.62 0 2.816 0 1.661 0 -0.758 -1.479 -3.733 -7.287z"/>
   <path class="fil0" d="M295.116 612.873c-2.825,-0.478 -3.64,-0.856 -3.64,-2.443 0,-1.188 0.304,-2.453 3.932,-2.453 1.595,0 3.474,0.214 4.7,0.413l1.179 0.193 0 -1.195 0 -2.304 0 -0.915 -0.91 -0.095c-1.577,-0.165 -3.27,-0.318 -4.969,-0.318 -5.693,0 -8.58,2.264 -8.58,6.731 0,5.603 4.522,6.28 6.696,6.605l0.176 0.028c2.876,0.447 3.963,0.778 3.963,2.493 0,1.421 -0.456,3.052 -4.018,3.052 -1.656,0 -3.163,-0.215 -5.365,-0.61l-1.195 -0.215 0 1.215 0 2.332 0 0.853 0.84 0.147c1.993,0.35 3.975,0.528 5.89,0.528 5.32,0 8.495,-2.75 8.495,-7.357 0,-5.543 -4.158,-6.204 -7.194,-6.685z"/>
   <polygon class="fil0" points="306.532,604.068 305.516,604.068 305.516,605.084 305.516,625.558 305.516,626.573 306.532,626.573 309.063,626.573 310.079,626.573 310.079,625.558 310.079,605.084 310.079,604.068 309.063,604.068 "/>
   <polygon class="fil0" points="313.835,604.068 312.82,604.068 312.82,605.084 312.82,607.302 312.82,608.318 313.835,608.318 319.986,608.318 319.986,625.558 319.986,626.573 321.001,626.573 323.503,626.573 324.519,626.573 324.519,625.558 324.519,608.318 330.669,608.318 331.685,608.318 331.685,607.302 331.685,605.084 331.685,604.068 330.669,604.068 "/>
   <polygon class="fil0" points="350.831,604.068 347.987,604.068 347.362,604.068 347.08,604.625 342.638,613.39 338.172,604.623 337.89,604.068 337.267,604.068 334.396,604.068 332.711,604.068 333.498,605.558 340.346,618.529 340.346,625.558 340.346,626.573 341.362,626.573 343.865,626.573 344.88,626.573 344.88,625.558 344.88,618.529 351.729,605.558 352.515,604.068 "/>
   <polygon class="fil1" points="50.203,574.266 50.203,581.563 0,581.563 0,508.583 48.213,508.583 48.213,515.881 8.184,515.881 8.184,540.649 46.222,540.649 46.222,547.285 8.184,547.285 8.184,574.266 "/>
   <path class="fil1" d="M101.012 548.168c2.69,-3.241 4.036,-7.629 4.036,-13.157 0,-5.013 -0.701,-8.903 -2.102,-11.666 -1.401,-2.765 -3.465,-4.7 -6.192,-5.806 -2.728,-1.105 -6.265,-1.658 -10.615,-1.658l-16.475 0 0 37.153 19.461 0c5.233,0 9.194,-1.621 11.887,-4.866zm5.473 -33.393c4.496,4.13 6.745,10.801 6.745,20.014 0,7.815 -2.083,13.952 -6.248,18.412 -4.164,4.46 -10.081,6.689 -17.747,6.689l-19.571 0 0 21.673 -8.184 0 0 -72.98 24.991 0c8.846,0 15.518,2.064 20.014,6.192z"/>
   <path class="fil1" d="M129.484 513.226c-1.327,-1.031 -1.99,-2.469 -1.99,-4.312 0,-1.916 0.663,-3.373 1.99,-4.368 1.326,-0.994 3.132,-1.492 5.418,-1.492 2.285,0 4.092,0.498 5.418,1.492 1.327,0.995 1.99,2.452 1.99,4.368 0,1.843 -0.663,3.281 -1.99,4.312 -1.326,1.034 -3.133,1.549 -5.418,1.549 -2.286,0 -4.092,-0.515 -5.418,-1.549zm34.721 60.929l0 6.966c-0.663,0.295 -1.769,0.59 -3.318,0.884 -1.547,0.295 -3.17,0.443 -4.864,0.443 -7.005,0 -12.496,-2.1 -16.476,-6.303 -3.981,-4.202 -6.599,-10.21 -7.852,-18.024 -3.538,6.341 -8.883,14.154 -16.034,23.442l-9.84 0 3.981 -4.976c5.97,-7.592 10.576,-13.711 13.821,-18.356 3.244,-4.644 5.64,-9.029 7.187,-13.158l0 -18.798 8.184 0 0 20.236c0,10.173 1.51,17.49 4.533,21.949 3.022,4.461 7.37,6.69 13.048,6.69 3.096,0 5.64,-0.332 7.63,-0.995z"/>
   <path class="fil1" d="M175.649 517.43c5.786,-6.487 13.914,-9.732 24.382,-9.732 4.57,0 8.642,0.516 12.22,1.548 3.574,1.033 6.173,2.101 7.796,3.207l0 8.404c-5.825,-3.908 -12.496,-5.861 -20.016,-5.861 -7.668,0 -13.73,2.526 -18.19,7.575 -4.461,5.049 -6.69,12.55 -6.69,22.502 0,9.51 2.173,16.9 6.525,22.17 4.348,5.272 10.687,7.907 19.019,7.907 3.981,0 7.868,-0.609 11.667,-1.825 3.795,-1.216 6.872,-2.671 9.232,-4.368l0 8.184c-1.622,1.253 -4.369,2.451 -8.238,3.592 -3.87,1.143 -8.165,1.715 -12.882,1.715 -11.279,0 -19.682,-3.409 -25.212,-10.229 -5.529,-6.818 -8.293,-15.867 -8.293,-27.146 0,-11.942 2.892,-21.157 8.68,-27.643z"/>
   <path class="fil1" d="M233.203 508.583l8.182 0 0 42.019c0,8.552 1.345,14.745 4.037,18.577 2.69,3.833 7.093,5.749 13.214,5.749 6.118,0 10.521,-1.916 13.213,-5.749 2.691,-3.832 4.036,-10.025 4.036,-18.577l0 -42.019 8.184 0 0 42.019c0,11.648 -2.287,19.867 -6.856,24.658 -4.572,4.793 -10.764,7.188 -18.577,7.188 -7.74,0 -13.916,-2.395 -18.522,-7.188 -4.608,-4.791 -6.911,-13.01 -6.911,-24.658l0 -42.019z"/>
   <path class="fil1" d="M323.875 544.852c5.012,0 8.863,-1.087 11.555,-3.263 2.69,-2.173 4.037,-5.84 4.037,-11.002 0,-5.233 -1.421,-8.993 -4.258,-11.279 -2.838,-2.283 -6.838,-3.427 -11.997,-3.427l-17.472 0 0 28.971 18.135 0zm19.461 36.711l-16.476 -29.855 -0.883 0 -20.237 0 0 29.855 -8.182 0 0 -72.98 25.874 0c7.741,0 13.711,1.863 17.914,5.584 4.201,3.723 6.304,9.197 6.304,16.42 0,10.469 -4.13,17.067 -12.385,19.795l17.249 31.181 -9.178 0z"/>
   <path class="fil2" d="M317.324 330.202l35.264 54.927 -37.986 0 -31.786 -49.499 -0.015 -0.655 0 -21.787 2.037 -0.16c6.899,-0.494 12.518,-2.459 16.709,-5.792 4.977,-3.959 7.481,-8.747 7.481,-14.22 0,-5.486 -3.101,-10.304 -8.31,-12.88 -4.105,-2.009 -9.024,-2.533 -17.247,-2.838 -0.014,0 -3.872,-0.015 -4.09,-0.015l-46.864 0.015 0 -31.946 47.49 0c21.031,0 36.763,4.031 46.762,11.992 10.057,8.005 15.166,19.59 15.166,34.42 0,8.485 -2.198,16.2 -6.521,22.923 -4.176,6.52 -10.26,11.731 -18.09,15.515z"/>
   <path class="fil3" d="M261.304 114.904c0,9.621 -2.401,18.338 -7.159,25.921 -4.745,7.583 -12.124,13.666 -21.89,18.119 -9.751,4.425 -21.919,6.666 -36.196,6.666l-65.58 0 0 49.542 -34.479 0 0 -45.263 39.063 -32.601 60.122 0c10.348,0 18.324,-2.023 23.68,-6.025 5.283,-3.944 7.961,-9.009 7.961,-15.035 0,-6.389 -1.572,-11.293 -4.657,-14.597 -3.1,-3.319 -7.379,-5.546 -12.706,-6.608 -4.861,-0.975 -11.119,-1.514 -18.6,-1.616l-1.004 -0.014 -26.211 -31.408 25.818 0c21.904,0 39.514,3.959 52.337,11.775 12.938,7.888 19.501,21.729 19.501,41.144z"/>
   <path class="fil4" d="M217.031 346.052l0 31.406 -53.209 0c0.408,4.033 1.252,7.613 2.533,10.756 1.28,3.144 2.983,5.822 5.108,8.034 4.206,4.381 10.857,7.045 19.735,7.903l4.949 0.495 -29.749 26.546 -1.223 -0.436c-11.162,-3.973 -19.837,-10.464 -25.818,-19.27 -5.997,-8.863 -9.417,-20.317 -10.159,-34.028l-0.306 0 -0.16 0c-19.255,0 -35.701,-3.434 -48.872,-10.215 -13.216,-6.783 -23.2,-15.995 -29.705,-27.362 -1.033,-1.806 -2.009,-3.741 -2.998,-5.924l-0.67 -1.47 28.409 -25.338 0.597 3.987c3.421,23.025 21.423,34.77 53.53,34.916l0 -34.785 34.494 0 0 34.785 53.514 0z"/>
   <polygon class="fil5" points="155.584,61.986 181.796,93.379 130.479,93.379 130.479,133.053 91.474,165.61 0.001,165.61 0.001,94.646 39.123,61.986 80.515,61.986 80.515,93.189 34.48,93.189 34.48,137.492 96,137.492 96,61.986 "/>
   <path class="fil6" d="M267.01 293.104l0 78.432c0,21.248 -5.822,37.433 -17.304,48.101 -11.454,10.639 -28.847,16.038 -51.682,16.038 -7.248,0 -14.045,-0.553 -20.215,-1.63l-4.426 -0.786 32.748 -29.224 0.654 -0.088c7.889,-1.033 13.884,-3.623 17.786,-7.699 5.283,-5.487 7.946,-13.797 7.946,-24.712l0 -78.432 34.493 0z"/>
   <path class="fil7" d="M217.031 241.801l0 34.129 -2.663 -0.597c-6.854,-1.543 -13.171,-4.003 -19.357,-7.539 -9.329,-5.327 -16.519,-12.589 -22.617,-22.849 -7.64,-12.793 -10.304,-27.726 -10.203,-34.115l-0.101 -30.156 34.493 0 -0.029 21.205c0,14.423 3.624,25.513 10.799,32.965 2.431,2.532 5.298,4.672 8.5,6.345l1.178 0.612z"/>
   <path class="fil7" d="M197.253 5.05c4.424,3.435 6.578,8.238 6.578,14.656 0,6.345 -2.256,11.279 -6.694,14.671 -4.367,3.347 -10.363,5.05 -17.815,5.05 -7.597,0 -13.608,-1.703 -17.843,-5.05 -4.352,-3.449 -6.477,-8.238 -6.477,-14.671 0,-6.418 2.125,-11.221 6.477,-14.656 4.235,-3.347 10.246,-5.05 17.843,-5.05 7.583,0 13.623,1.688 17.931,5.05z"/>
   <polygon class="fil8" points="130.479,5.167 130.479,36.574 34.48,36.574 34.48,57.808 0.001,86.582 0.001,5.167 "/>
   <path class="fil8" d="M147.434 258.626l-2.198 -0.015c-4.439,-0.015 -17.173,-0.059 -18.046,-0.059 -7.947,0 -15.136,0.918 -21.512,2.751 -6.389,1.834 -11.949,4.57 -16.678,8.208 -8.398,6.492 -13.114,16.039 -13.973,28.396l-0.072 0.887 -30.884 27.565 -0.931 -3.39c-1.834,-6.622 -2.765,-13.565 -2.765,-20.667 0,-15.049 3.594,-28.394 10.682,-39.689 7.088,-11.294 17.305,-20.128 30.36,-26.256 13.025,-6.112 28.438,-9.212 45.773,-9.212 0.829,0 13.681,0.044 18.076,0.058l2.168 0 0 31.423z"/>
  </g>
 </g>
</svg>
